HIERARCHY
ROOT Hips
{
	OFFSET 0.000000 0.000000 0.000000
	CHANNELS 6 Xposition Yposition Zposition Zrotation Yrotation Xrotation 
	JOINT LHipJoint
	{
		OFFSET 0.000000 0.000000 0.000000
		CHANNELS 3 Zrotation Yrotation Xrotation
		JOINT LeftUpLeg
		{
			OFFSET 1.363060 -1.794630 0.839290
			CHANNELS 3 Zrotation Yrotation Xrotation
			JOINT LeftLeg
			{
				OFFSET 2.448110 -6.726130 0.000000
				CHANNELS 3 Zrotation Yrotation Xrotation
				JOINT LeftFoot
				{
					OFFSET 2.562200 -7.039590 0.000000
					CHANNELS 3 Zrotation Yrotation Xrotation
					JOINT LeftToeBase
					{
						OFFSET 0.157640 -0.433110 2.322550
						CHANNELS 3 Zrotation Yrotation Xrotation
						End Site
						{
							OFFSET 0.000000 0.000000 0.000000
						}
					}
				}
			}
		}
	}
	JOINT RHipJoint
	{
		OFFSET 0.000000 0.000000 0.000000
		CHANNELS 3 Zrotation Yrotation Xrotation
		JOINT RightUpLeg
		{
			OFFSET -1.305520 -1.794630 0.839290
			CHANNELS 3 Zrotation Yrotation Xrotation
			JOINT RightLeg
			{
				OFFSET -2.542530 -6.985550 0.000000
				CHANNELS 3 Zrotation Yrotation Xrotation
				JOINT RightFoot
				{
					OFFSET -2.568260 -7.056230 0.000000
					CHANNELS 3 Zrotation Yrotation Xrotation
					JOINT RightToeBase
					{
						OFFSET -0.164730 -0.452590 2.363150
						CHANNELS 3 Zrotation Yrotation Xrotation
						End Site
						{
							OFFSET 0.000000 0.000000 0.000000
						}
					}
				}
			}
		}
	}
}
MOTION
Frames: 31
Frame Time: 0.008333
8.748151 18.680253 1.696721 -173.206540 -81.084293 -171.875197 -12.065638 5.946476 0.969184 -4.269232 14.153431 0.179560 0.126418 1.766920 35.374736 2.745826 19.705197 12.990660 6.403000 -0.000000 -33.873000 8.917549 -1.576973 5.451227 7.327723 2.954339 -36.854363 3.490438 -0.364366 11.728498 2.141880 13.383977 13.565923 4.198600 -0.000000 -66.907000
8.514625 18.622830 1.643526 -176.116704 -80.295882 -169.446154 -12.084151 6.022927 0.779679 -4.541896 14.627053 0.071973 0.194694 1.984227 38.843546 2.792445 19.909037 12.215090 6.213599 0.000000 -33.719600 8.904746 -1.648258 5.226953 7.997326 2.182697 -36.474872 3.495160 -0.437974 12.166591 2.155741 13.716622 13.714662 4.353700 0.000000 -68.085901
8.282464 18.555830 1.590247 -178.412182 -79.535861 -167.603231 -12.099164 6.088219 0.595881 -4.776196 15.043709 -0.120444 0.280744 2.207138 42.343273 2.848917 20.204043 11.405071 6.043200 0.000000 -33.422300 8.908155 -1.725361 5.009756 8.602301 1.488368 -36.130585 3.456547 -0.543307 12.867063 2.146590 13.903710 13.891122 4.466700 -0.000000 -68.749600
8.051601 18.479172 1.537033 179.739747 -78.812482 -166.180978 -12.116231 6.144878 0.415261 -4.967942 15.403027 -0.381167 0.383700 2.436041 45.847729 2.919183 20.619225 10.564238 5.898800 0.000001 -33.046101 8.922819 -1.800475 4.804236 9.120599 0.903467 -35.787735 3.379785 -0.668080 13.773625 2.117446 13.955607 14.041180 4.527800 0.000000 -68.877300
7.821445 18.392219 1.483544 178.293421 -78.126377 -165.104404 -12.145021 6.196463 0.242574 -5.093725 15.732731 -0.762915 0.502056 2.669699 49.377805 3.000678 21.133949 9.665317 5.758200 0.000000 -32.420500 8.938337 -1.874418 4.637788 9.555673 0.500272 -35.477201 3.272480 -0.802761 14.871531 2.071397 13.850801 14.071585 4.507299 -0.000000 -68.353199
7.592202 18.294847 1.430017 177.075574 -77.496425 -164.227009 -12.183464 6.243823 0.075462 -5.162733 16.012401 -1.199449 0.637315 2.907247 52.878397 3.096408 21.766426 8.756791 5.638100 -0.000000 -31.799100 8.954933 -1.937642 4.491357 9.903588 0.224671 -35.154894 3.144228 -0.938890 16.132884 2.014776 13.649326 13.878106 4.405100 -0.000001 -67.255800
7.363568 18.186557 1.376276 176.051374 -76.929330 -163.505899 -12.234810 6.288756 -0.081777 -5.158173 16.253616 -1.704080 0.789270 3.146762 56.349187 3.202145 22.480429 7.838007 5.521500 -0.000000 -31.118800 8.966722 -1.990280 4.372413 10.185315 0.080693 -34.842006 3.005626 -1.071120 17.562360 1.951495 13.356522 13.345033 4.201601 0.000000 -65.558100
7.135475 18.066964 1.322188 175.172202 -76.432379 -162.893137 -12.299308 6.332016 -0.225366 -5.072028 16.457190 -2.272627 0.958118 3.386065 59.779000 3.313502 23.238625 6.917360 5.396900 0.000000 -30.413500 8.970533 -2.031493 4.279091 10.422538 0.043785 -34.555229 2.867021 -1.196433 19.171221 1.884397 12.988613 12.364653 3.887500 -0.000000 -63.279600
6.908089 17.935795 1.267578 174.391648 -76.011113 -162.344711 -12.375646 6.373151 -0.351441 -4.901708 16.620569 -2.903898 1.144007 3.622662 63.159927 3.425102 23.997038 5.992727 5.249400 -0.000000 -29.654600 8.964717 -2.060809 4.208367 10.635128 0.085502 -34.319575 2.737011 -1.314393 20.982532 1.813395 12.558626 10.845554 3.460700 0.000000 -60.425399
6.681536 17.792994 1.212191 173.670881 -75.665447 -161.818277 -12.461617 6.410839 -0.456339 -4.652151 16.738734 -3.600986 1.346900 3.853500 66.485489 3.531381 24.710747 5.058938 5.064900 0.000000 -28.868100 8.949069 -2.078194 4.157836 10.837029 0.181025 -34.163439 2.622643 -1.425781 23.016387 1.734761 12.077037 8.727946 2.930800 -0.000000 -57.004900
6.456082 17.638855 1.155804 172.975348 -75.391531 -161.274084 -12.554215 6.442392 -0.537330 -4.335116 16.804604 -4.372066 1.566452 4.075195 69.751208 3.627094 25.337499 4.102815 4.829700 0.000001 -28.062400 8.924926 -2.083651 4.126676 11.033752 0.316107 -34.116105 2.528644 -1.532775 25.290093 1.640520 11.551067 5.986857 2.318700 -0.000000 -52.991400
6.232293 17.474024 1.098169 172.281736 -75.180219 -160.678473 -12.650113 6.463047 -0.594324 -3.967287 16.812330 -5.235060 1.801862 4.284309 72.956944 3.707481 25.838768 3.098732 4.527600 0.000001 -27.194500 8.894797 -2.077441 4.117901 11.223043 0.499342 -34.208325 2.456828 -1.638925 27.810221 1.518185 10.976935 2.642689 1.656999 -0.000000 -48.380100
6.010705 17.299753 1.039253 171.590952 -75.017548 -160.021403 -12.747037 6.468194 -0.627637 -3.564637 16.756450 -6.208471 2.051542 4.477852 76.098874 3.769316 26.188013 2.036258 4.153801 0.000000 -26.363400 8.861287 -2.060345 4.136095 11.401387 0.750554 -34.458309 2.407817 -1.747804 30.564368 1.352923 10.348899 -1.250999 0.989300 -0.000000 -43.007600
5.791621 17.117819 0.979189 170.940301 -74.886011 -159.318609 -12.843986 6.452203 -0.639887 -3.138022 16.636209 -7.320995 2.312932 4.653712 79.176283 3.809727 26.362452 0.889423 3.700500 0.000000 -25.525600 8.826750 -2.035107 4.191110 11.566345 1.115228 -34.880778 2.377460 -1.864021 33.518137 1.127985 9.640295 -5.577652 0.370800 0.000000 -36.981900
5.575632 16.930593 0.918345 170.386185 -74.767363 -158.610518 -12.941503 6.410005 -0.634060 -2.692561 16.452213 -8.598843 2.582840 4.811528 82.184419 3.827337 26.352321 -0.352178 3.171800 0.000001 -24.716900 8.792668 -2.004151 4.291570 11.720165 1.637185 -35.478844 2.358906 -1.991774 36.625648 0.829176 8.824989 -10.202346 -0.137600 -0.000000 -30.274100
5.363192 16.740910 0.857362 169.995228 -74.644259 -157.950258 -13.041693 6.337106 -0.613281 -2.228260 16.205460 -10.065484 2.857698 4.952907 85.114692 3.821865 26.158214 -1.685629 2.581800 -0.000000 -23.997000 8.760596 -1.970795 4.444840 11.866691 2.353074 -36.245147 2.337925 -2.134462 39.817427 0.449746 7.865389 -14.906928 -0.470300 0.000000 -23.568600
5.154638 16.551965 0.797096 169.828353 -74.504354 -157.390367 -13.147480 6.230094 -0.579965 -1.740523 15.895957 -11.734726 3.134127 5.081344 87.954525 3.793838 25.788825 -3.101688 1.950301 0.000000 -23.383000 8.731094 -1.937176 4.652692 12.010226 3.274264 -37.162439 2.299505 -2.292859 43.026758 -0.004598 6.741035 -19.480477 -0.578700 0.000000 -17.450700
4.950389 16.367014 0.738470 169.909538 -74.341812 -156.959157 -13.261174 6.086337 -0.536080 -1.225915 15.520902 -13.607032 3.409517 5.201976 90.686811 3.744788 25.261902 -4.577538 1.303700 0.000000 -22.897800 8.706235 -1.904900 4.909364 12.148214 4.377479 -38.199709 2.225673 -2.464593 46.174798 -0.508803 5.446413 -23.647530 -0.440500 0.000000 -13.350400
4.750728 16.189283 0.682474 170.243553 -74.160861 -156.677880 -13.383451 5.903708 -0.482577 -0.674949 15.075446 -15.664744 3.682499 5.320281 93.290996 3.676580 24.598307 -6.084276 0.669000 0.000001 -22.525000 8.684188 -1.871335 5.198261 12.284382 5.604600 -39.312985 2.117137 -2.642922 49.216195 -1.033468 4.039362 -27.342731 -0.085300 -0.000001 -10.753900
4.556155 16.021828 0.630051 170.789562 -73.970021 -156.537325 -13.512328 5.681473 -0.420506 -0.083266 14.554681 -17.873918 3.952545 5.441647 95.743387 3.591760 23.824285 -7.585390 0.072900 0.000000 -22.245700 8.665602 -1.834409 5.494384 12.418570 6.868424 -40.441949 1.977893 -2.819703 52.091112 -1.540444 2.599442 -30.472917 0.427300 -0.000000 -9.809600
4.366797 15.867374 0.581995 171.488174 -73.784445 -156.513678 -13.643939 5.420610 -0.347973 0.550453 13.951921 -20.194142 4.219773 5.569278 98.019634 3.493683 22.970934 -9.025739 -0.456600 -0.000001 -22.147700 8.650811 -1.792322 5.768027 12.556093 8.066821 -41.522030 1.822496 -2.986765 54.753245 -1.997665 1.234995 -33.051666 1.014200 -0.000000 -9.924600
4.183014 15.728284 0.538730 172.239705 -73.615229 -156.556950 -13.770890 5.124936 -0.266634 1.214119 13.269543 -22.567349 4.482840 5.704114 100.094455 3.385752 22.068868 -10.376832 -0.908400 -0.000000 -22.120000 8.645051 -1.744942 5.984851 12.694337 9.090273 -42.476886 1.666641 -3.138293 57.159755 -2.377173 0.056960 -35.103097 1.586000 0.000000 -10.811400
4.004798 15.606369 0.500304 172.931582 -73.473424 -156.601534 -13.885119 4.800604 -0.176872 1.884285 12.512710 -24.939544 4.738869 5.843179 101.946928 3.272255 21.152473 -11.601977 -1.274300 0.000000 -22.149400 8.654999 -1.694508 6.114916 12.828624 9.840841 -43.238939 1.526409 -3.270740 59.279381 -2.662335 -0.839016 -36.692415 2.064700 0.000000 -12.082700
3.832108 15.502346 0.465579 173.405027 -73.376709 -156.547287 -13.976392 4.457232 -0.083077 2.525714 11.683308 -27.235965 4.982535 5.979986 103.559373 3.157313 20.253619 -12.676653 -1.555600 -0.000000 -22.221300 8.692745 -1.644726 6.125393 12.942439 10.218191 -43.728361 1.415057 -3.383538 61.093260 -2.846968 -1.389272 -37.905571 2.394500 -0.000000 -13.561600
3.663365 15.418079 0.435378 173.664397 -73.311183 -156.387450 -14.044390 4.099598 0.019826 3.105523 10.817271 -29.480314 5.206354 6.107571 104.926896 3.046951 19.409521 -13.579378 -1.757700 -0.000000 -22.286600 8.752198 -1.603047 6.030134 13.033672 10.233865 -43.963420 1.338298 -3.473712 62.570462 -2.934333 -1.580173 -38.774620 2.547700 0.000000 -15.142600
3.497956 15.352732 0.407650 173.571383 -73.288195 -156.025172 -14.081107 3.737242 0.123213 3.582591 9.926554 -31.611090 5.401968 6.217626 106.044760 2.944819 18.643796 -14.311375 -1.894500 -0.000000 -22.309000 8.842161 -1.573393 5.815509 13.071278 9.844610 -43.895909 1.301006 -3.543268 63.708970 -2.936988 -1.427997 -39.394280 2.523600 -0.000001 -16.758200
3.334683 15.305632 0.381078 173.088300 -73.309469 -155.438353 -14.084141 3.377424 0.219041 3.935905 9.035240 -33.595116 5.561437 6.304894 106.913132 2.853694 17.972114 -14.882779 -1.980400 0.000000 -22.255700 8.961155 -1.558912 5.487703 13.036425 9.069351 -43.505275 1.303950 -3.592989 64.502565 -2.875473 -0.993775 -39.842930 2.348200 -0.000000 -18.280900
3.171556 15.275526 0.354620 172.217442 -73.360240 -154.589205 -14.053658 3.020273 0.309542 4.133849 8.176671 -35.476724 5.679122 6.364130 107.549947 2.777021 17.409765 -15.301773 -2.027500 0.000000 -22.119200 9.102072 -1.562579 5.080513 12.903090 7.971203 -42.860081 1.342439 -3.623673 64.951919 -2.767300 -0.348199 -40.143221 2.052199 -0.000000 -19.878800
3.006686 15.261187 0.327632 171.024145 -73.429349 -153.517822 -13.991016 2.666980 0.391176 4.179923 7.383410 -37.268245 5.752005 6.395473 107.965684 2.715656 16.957161 -15.588744 -2.047500 0.000000 -21.893700 9.255408 -1.583180 4.624786 12.662951 6.641143 -41.988129 1.412041 -3.635147 65.058555 -2.636364 0.411043 -40.345494 1.685901 -0.000000 -21.430200
2.838055 15.261277 0.299570 169.580187 -73.504691 -152.260084 -13.896859 2.317317 0.462316 4.077137 6.681343 -38.992015 5.779424 6.399786 108.174653 2.670065 16.612018 -15.766274 -2.050100 0.000001 -21.593800 9.414238 -1.618363 4.154297 12.307264 5.177370 -40.928785 1.505000 -3.626947 64.825276 -2.498634 1.189275 -40.447269 1.296399 -0.000000 -23.218300
2.663737 15.274581 0.270180 167.999642 -73.572919 -150.893260 -13.773249 1.972063 0.523293 3.845824 6.095112 -40.670479 5.762496 6.380348 108.187185 2.639036 16.361957 -15.861724 -2.043300 0.000000 -21.235000 9.570617 -1.664766 3.703256 11.845105 3.690529 -39.713199 1.615259 -3.597304 64.262740 -2.370407 1.904246 -40.474149 0.929800 0.000000 -25.133800
